RBDS027runT45_grf
version=1
nRows=27
nColumns=19
inDegrees=no
endheader
time	ground_force_r_vx	ground_force_r_vy	ground_force_r_vz	ground_force_r_px	ground_force_r_py	ground_force_r_pz	ground_force_r_mx	ground_force_r_my	ground_force_r_mz	ground_force_l_vx	ground_force_l_vy	ground_force_l_vz	ground_force_l_px	ground_force_l_py	ground_force_l_pz	ground_force_l_mx	ground_force_l_my	ground_force_l_mz
      7.49900000	      0.00000000	      0.00000000	      0.00000000	      0.00000000	      0.00000000	      0.00000000	      0.00000000	      0.00000000	      0.00000000	   -194.69511245	   1238.53087598	      8.01805776	      2.27174685	      0.00000000	      0.96027435	     -0.00000000	      4.51542766	     -0.00000000
      7.50000000	      0.00000000	      0.00000000	      0.00000000	      0.00000000	      0.00000000	      0.00000000	      0.00000000	      0.00000000	      0.00000000	   -197.54480742	   1262.69652856	      8.38099525	      2.27012464	      0.00000000	      0.96044880	     -0.00000000	      4.46452670	     -0.00000000
      7.50100000	      0.00000000	      0.00000000	      0.00000000	      0.00000000	      0.00000000	      0.00000000	      0.00000000	      0.00000000	      0.00000000	   -200.00429785	   1284.67427277	      8.67201775	      2.26835150	      0.00000000	      0.96059580	     -0.00000000	      4.43154940	     -0.00000000
      7.50200000	      0.00000000	      0.00000000	      0.00000000	      0.00000000	      0.00000000	      0.00000000	      0.00000000	      0.00000000	      0.00000000	   -202.46378827	   1306.65201697	      8.96304024	      2.26657836	      0.00000000	      0.96074280	     -0.00000000	      4.39857209	     -0.00000000
      7.50300000	      0.00000000	      0.00000000	      0.00000000	      0.00000000	      0.00000000	      0.00000000	      0.00000000	      0.00000000	      0.00000000	   -204.92327869	   1328.62976117	      9.25406273	      2.26480522	      0.00000000	      0.96088980	     -0.00000000	      4.36559479	     -0.00000000
      7.50400000	      0.00000000	      0.00000000	      0.00000000	      0.00000000	      0.00000000	      0.00000000	      0.00000000	      0.00000000	      0.00000000	   -207.08350481	   1349.19683637	      9.52196686	      2.26292766	      0.00000000	      0.96101799	     -0.00000000	      4.34639522	     -0.00000000
      7.50500000	      0.00000000	      0.00000000	      0.00000000	      0.00000000	      0.00000000	      0.00000000	      0.00000000	      0.00000000	      0.00000000	   -209.09409876	   1369.05857707	      9.77831181	      2.26099789	      0.00000000	      0.96113678	     -0.00000000	      4.33408453	     -0.00000000
      7.50600000	      0.00000000	      0.00000000	      0.00000000	      0.00000000	      0.00000000	      0.00000000	      0.00000000	      0.00000000	      0.00000000	   -211.10469271	   1388.92031777	     10.03465676	      2.25906812	      0.00000000	      0.96125557	     -0.00000000	      4.32177384	     -0.00000000
      7.50700000	      0.00000000	      0.00000000	      0.00000000	      0.00000000	      0.00000000	      0.00000000	      0.00000000	      0.00000000	      0.00000000	   -212.94703989	   1408.11106561	     10.29121095	      2.25708503	      0.00000000	      0.96136492	     -0.00000000	      4.31707485	     -0.00000000
      7.50800000	      0.00000000	      0.00000000	      0.00000000	      0.00000000	      0.00000000	      0.00000000	      0.00000000	      0.00000000	      0.00000000	   -214.45289350	   1425.95982776	     10.54818360	      2.25499530	      0.00000000	      0.96145537	     -0.00000000	      4.32759925	     -0.00000000
      7.50900000	      0.00000000	      0.00000000	      0.00000000	      0.00000000	      0.00000000	      0.00000000	      0.00000000	      0.00000000	      0.00000000	   -215.95874711	   1443.80858991	     10.80515626	      2.25290558	      0.00000000	      0.96154583	     -0.00000000	      4.33812366	     -0.00000000
      7.51000000	      0.00000000	      0.00000000	      0.00000000	      0.00000000	      0.00000000	      0.00000000	      0.00000000	      0.00000000	      0.00000000	   -217.46460072	   1461.65735206	     11.06212892	      2.25081585	      0.00000000	      0.96163628	     -0.00000000	      4.34864807	     -0.00000000
      7.51100000	      0.00000000	      0.00000000	      0.00000000	      0.00000000	      0.00000000	      0.00000000	      0.00000000	      0.00000000	      0.00000000	   -218.41434714	   1477.61783838	     11.34999016	      2.24856515	      0.00000000	      0.96169897	     -0.00000000	      4.38347142	     -0.00000000
      7.51200000	      0.00000000	      0.00000000	      0.00000000	      0.00000000	      0.00000000	      0.00000000	      0.00000000	      0.00000000	      0.00000000	   -219.36409357	   1493.57832469	     11.63785141	      2.24631445	      0.00000000	      0.96176166	      0.00000000	      4.41829477	     -0.00000000
      7.51300000	      0.00000000	      0.00000000	      0.00000000	      0.00000000	      0.00000000	      0.00000000	      0.00000000	      0.00000000	      0.00000000	   -220.31384000	   1509.53881101	     11.92571265	      2.24406375	      0.00000000	      0.96182435	      0.00000000	      4.45311813	     -0.00000000
      7.51400000	      0.00000000	      0.00000000	      0.00000000	      0.00000000	      0.00000000	      0.00000000	      0.00000000	      0.00000000	      0.00000000	   -220.86259017	   1524.33153375	     12.24934278	      2.24170649	      0.00000000	      0.96186939	      0.00000000	      4.50458326	     -0.00000000
      7.51500000	      0.00000000	      0.00000000	      0.00000000	      0.00000000	      0.00000000	      0.00000000	      0.00000000	      0.00000000	      0.00000000	   -221.21084221	   1538.54037470	     12.59085735	      2.23929596	      0.00000000	      0.96190560	      0.00000000	      4.56436929	     -0.00000000
      7.51600000	      0.00000000	      0.00000000	      0.00000000	      0.00000000	      0.00000000	      0.00000000	      0.00000000	      0.00000000	      0.00000000	   -221.55909425	   1552.74921564	     12.93237192	      2.23688542	      0.00000000	      0.96194181	      0.00000000	      4.62415532	     -0.00000000
      7.51700000	      0.00000000	      0.00000000	      0.00000000	      0.00000000	      0.00000000	      0.00000000	      0.00000000	      0.00000000	      0.00000000	   -221.69414806	   1566.42054652	     13.29632273	      2.23442264	      0.00000000	      0.96196986	      0.00000000	      4.69220116	     -0.00000000
      7.51800000	      0.00000000	      0.00000000	      0.00000000	      0.00000000	      0.00000000	      0.00000000	      0.00000000	      0.00000000	      0.00000000	   -221.40280541	   1579.01685726	     13.70514605	      2.23185536	      0.00000000	      0.96198159	      0.00000000	      4.77676665	     -0.00000000
      7.51900000	      0.00000000	      0.00000000	      0.00000000	      0.00000000	      0.00000000	      0.00000000	      0.00000000	      0.00000000	      0.00000000	   -221.11146277	   1591.61316800	     14.11396936	      2.22928809	      0.00000000	      0.96199332	      0.00000000	      4.86133213	     -0.00000000
      7.52000000	      0.00000000	      0.00000000	      0.00000000	      0.00000000	      0.00000000	      0.00000000	      0.00000000	      0.00000000	      0.00000000	   -220.82012012	   1604.20947874	     14.52279268	      2.22672081	      0.00000000	      0.96200505	      0.00000000	      4.94589762	     -0.00000000
      7.52100000	      0.00000000	      0.00000000	      0.00000000	      0.00000000	      0.00000000	      0.00000000	      0.00000000	      0.00000000	      0.00000000	   -219.85944254	   1615.32625425	     15.00275314	      2.22400158	      0.00000000	      0.96199496	      0.00000000	      5.05421844	     -0.00000000
      7.52200000	      0.00000000	      0.00000000	      0.00000000	      0.00000000	      0.00000000	      0.00000000	      0.00000000	      0.00000000	      0.00000000	   -218.89876496	   1626.44302976	     15.48271360	      2.22128235	      0.00000000	      0.96198487	      0.00000000	      5.16253925	     -0.00000000
      7.52300000	      0.00000000	      0.00000000	      0.00000000	      0.00000000	      0.00000000	      0.00000000	      0.00000000	      0.00000000	      0.00000000	   -217.93808738	   1637.55980528	     15.96267406	      2.21856313	      0.00000000	      0.96197479	      0.00000000	      5.27086007	     -0.00000000
      7.52400000	      0.00000000	      0.00000000	      0.00000000	      0.00000000	      0.00000000	      0.00000000	      0.00000000	      0.00000000	      0.00000000	   -216.51748792	   1647.76990837	     16.48615136	      2.21574673	      0.00000000	      0.96195234	      0.00000000	      5.39381261	     -0.00000000
      7.52500000	      0.00000000	      0.00000000	      0.00000000	      0.00000000	      0.00000000	      0.00000000	      0.00000000	      0.00000000	      0.00000000	   -214.86692753	   1657.52667526	     17.03138708	      2.21288176	      0.00000000	      0.96192371	      0.00000000	      5.52408102	     -0.00000000
